<svg xmlns="http://www.w3.org/2000/svg" width="132" height="44" viewBox="0 0 132 44">
    <g fill="none" fill-rule="evenodd">
        <g fill-rule="nonzero">
            <g>
                <g>
                    <g>
                        <g>
                            <path fill="#A6A6A6" d="M121.148 0H10.488c-.403 0-.802 0-1.204.002-.337.002-.67.009-1.01.014-.74.009-1.476.074-2.205.195C5.34.334 4.636.566 3.978.9c-.658.336-1.258.773-1.78 1.296C1.671 2.717 1.234 3.32.9 3.98.567 4.639.335 5.345.214 6.074.09 6.802.025 7.538.017 8.276.007 8.613.005 8.95 0 9.289v25.425c.005.342.006.673.017 1.015.008.738.074 1.474.197 2.202.12.729.353 1.435.687 2.094.334.658.771 1.258 1.296 1.776.52.525 1.122.963 1.78 1.297.66.334 1.364.568 2.092.694.729.12 1.466.184 2.204.194.34.008.674.012 1.01.012.403.002.802.002 1.205.002h110.66c.396 0 .797 0 1.193-.002.335 0 .679-.004 1.014-.012.737-.01 1.472-.074 2.2-.194.73-.127 1.437-.36 2.099-.694.658-.335 1.259-.772 1.779-1.297.523-.52.962-1.12 1.3-1.776.332-.66.561-1.366.68-2.094.123-.728.191-1.464.205-2.202.004-.342.004-.673.004-1.015.008-.4.008-.797.008-1.203V10.49c0-.403 0-.803-.008-1.201 0-.338 0-.676-.004-1.013-.014-.738-.082-1.474-.205-2.202-.12-.729-.349-1.435-.68-2.094-.68-1.323-1.756-2.4-3.08-3.08-.66-.333-1.368-.565-2.098-.69-.728-.12-1.463-.186-2.2-.194-.335-.005-.68-.012-1.014-.014C121.945 0 121.544 0 121.148 0z" transform="translate(-152 -3639) translate(0 3285) translate(152 354)"/>
                            <path fill="#000" d="M9.29 43.038c-.336 0-.663-.005-.995-.012-.69-.01-1.376-.07-2.056-.18-.635-.109-1.249-.312-1.823-.602-.569-.288-1.088-.666-1.537-1.119-.455-.447-.834-.966-1.122-1.536-.291-.573-.493-1.188-.597-1.823-.114-.682-.175-1.371-.184-2.062C.97 35.472.96 34.699.96 34.699V9.29s.01-.76.016-.984c.009-.69.07-1.379.183-2.06.105-.636.306-1.252.597-1.828.287-.57.664-1.089 1.117-1.538.452-.453.973-.832 1.543-1.124.572-.29 1.185-.491 1.818-.599.682-.111 1.372-.172 2.063-.18L9.29.963h113.045l1.005.013c.685.009 1.368.068 2.044.18.64.108 1.259.311 1.838.602 1.141.588 2.07 1.52 2.656 2.662.287.571.485 1.183.59 1.814.113.686.177 1.38.19 2.076.003.311.003.646.003.979.01.412.01.805.01 1.2v23.022c0 .4 0 .79-.01 1.183 0 .358 0 .685-.004 1.023-.013.683-.075 1.364-.188 2.039-.102.639-.303 1.258-.594 1.837-.29.563-.667 1.078-1.117 1.524-.45.455-.97.835-1.54 1.125-.577.292-1.196.496-1.834.604-.68.111-1.367.171-2.056.18-.322.007-.66.011-.987.011l-1.193.003L9.29 43.038z" transform="translate(-152 -3639) translate(0 3285) translate(152 354)"/>
                        </g>
                        <g fill="#FFF">
                            <g>
                                <g>
                                    <path d="M17.346 13.53c.024-1.865 1.002-3.59 2.592-4.567-1.008-1.438-2.635-2.318-4.39-2.373-1.847-.194-3.638 1.105-4.58 1.105C10.01 7.695 8.56 6.61 7 6.641c-2.053.067-3.921 1.206-4.92 3.001-2.127 3.683-.54 9.096 1.497 12.074 1.02 1.458 2.211 3.086 3.77 3.028 1.526-.063 2.096-.973 3.938-.973 1.825 0 2.36.973 3.95.937 1.637-.027 2.669-1.465 3.653-2.936.732-1.04 1.296-2.187 1.67-3.402-1.945-.823-3.209-2.728-3.211-4.84zM14.341 4.632c.893-1.072 1.332-2.449 1.226-3.84-1.364.144-2.624.795-3.528 1.826-.894 1.017-1.346 2.347-1.258 3.697 1.382.015 2.694-.606 3.56-1.683z" transform="translate(-152 -3639) translate(0 3285) translate(152 354) translate(9.9 8.8)"/>
                                </g>
                            </g>
                            <g>
                                <path d="M9.132 11.154H3.926l-1.25 3.692H.47l4.932-13.66h2.291l4.932 13.66h-2.243l-1.25-3.692zM4.465 9.45h4.127L6.558 3.458H6.5L4.465 9.45zM23.276 9.867c0 3.095-1.657 5.083-4.156 5.083-1.293.067-2.51-.61-3.134-1.742h-.047v4.932h-2.045V4.887h1.98v1.656h.037c.652-1.126 1.87-1.803 3.17-1.76 2.529 0 4.195 1.997 4.195 5.084zm-2.102 0c0-2.017-1.042-3.342-2.631-3.342-1.562 0-2.613 1.353-2.613 3.342 0 2.006 1.05 3.35 2.613 3.35 1.59 0 2.631-1.316 2.631-3.35zM34.237 9.867c0 3.095-1.656 5.083-4.156 5.083-1.292.067-2.51-.61-3.134-1.742H26.9v4.932h-2.044V4.887h1.978v1.656h.038c.652-1.126 1.87-1.803 3.171-1.76 2.528 0 4.194 1.997 4.194 5.084zm-2.101 0c0-2.017-1.042-3.342-2.632-3.342-1.562 0-2.613 1.353-2.613 3.342 0 2.006 1.051 3.35 2.613 3.35 1.59 0 2.632-1.316 2.632-3.35zM41.482 11.04c.151 1.354 1.467 2.244 3.265 2.244 1.723 0 2.963-.89 2.963-2.111 0-1.06-.748-1.695-2.518-2.13l-1.77-.427c-2.509-.606-3.673-1.779-3.673-3.682 0-2.357 2.054-3.976 4.97-3.976 2.887 0 4.865 1.619 4.932 3.976h-2.064c-.123-1.363-1.25-2.186-2.897-2.186-1.647 0-2.773.832-2.773 2.044 0 .966.72 1.534 2.48 1.969l1.505.37c2.803.662 3.967 1.788 3.967 3.786 0 2.556-2.036 4.156-5.273 4.156-3.03 0-5.075-1.563-5.207-4.033h2.093zM54.28 2.53v2.357h1.895v1.618H54.28v5.49c0 .854.379 1.251 1.212 1.251.224-.004.449-.02.672-.047v1.61c-.374.069-.755.1-1.135.094-2.017 0-2.803-.758-2.803-2.69V6.506h-1.448V4.887h1.448V2.53h2.054zM57.272 9.867c0-3.134 1.845-5.103 4.723-5.103 2.887 0 4.724 1.97 4.724 5.103 0 3.142-1.827 5.102-4.724 5.102-2.896 0-4.723-1.96-4.723-5.102zm7.364 0c0-2.15-.985-3.418-2.641-3.418-1.657 0-2.64 1.278-2.64 3.418 0 2.158.983 3.417 2.64 3.417 1.656 0 2.641-1.26 2.641-3.417zM68.405 4.887h1.95v1.695h.047c.272-1.091 1.271-1.843 2.395-1.8.236 0 .47.025.7.077V6.77c-.297-.091-.607-.133-.918-.124-.6-.024-1.183.215-1.592.656-.41.44-.606 1.038-.538 1.636v5.907h-2.044v-9.96zM82.923 11.92c-.275 1.809-2.036 3.05-4.289 3.05-2.897 0-4.695-1.942-4.695-5.056 0-3.124 1.808-5.15 4.61-5.15 2.755 0 4.488 1.893 4.488 4.913v.7h-7.034v.123c-.066.742.19 1.476.703 2.016.512.54 1.232.833 1.976.805.992.093 1.927-.476 2.3-1.4h1.94zm-6.91-2.972h4.978c.037-.666-.205-1.317-.669-1.797-.464-.48-1.106-.745-1.773-.73-.673-.004-1.319.26-1.795.735-.477.475-.743 1.12-.742 1.792z" transform="translate(-152 -3639) translate(0 3285) translate(152 354) translate(9.9 8.8) translate(27.5 9.9)"/>
                            </g>
                        </g>
                    </g>
                    <g fill="#FFF">
                        <g>
                            <path d="M3.109.804c.868-.062 1.718.268 2.316.9.598.632.882 1.498.772 2.361 0 2.097-1.133 3.303-3.088 3.303H.738V.804h2.37zM1.757 6.44h1.238c.62.037 1.224-.207 1.644-.665.42-.458.611-1.08.52-1.695.084-.612-.11-1.23-.528-1.684-.42-.454-1.02-.698-1.636-.663H1.757v4.707zM7.349 4.889C7.264 4 7.689 3.142 8.447 2.67c.758-.47 1.717-.47 2.475 0s1.183 1.33 1.099 2.218c.086.889-.34 1.75-1.098 2.22-.758.472-1.718.472-2.477 0-.758-.47-1.184-1.331-1.097-2.22zm3.666 0c0-1.074-.482-1.702-1.329-1.702-.85 0-1.327.628-1.327 1.702 0 1.082.478 1.705 1.327 1.705.847 0 1.33-.627 1.33-1.705zM18.231 7.368L17.217 7.368 16.193 3.719 16.115 3.719 15.096 7.368 14.092 7.368 12.726 2.414 13.718 2.414 14.605 6.194 14.678 6.194 15.697 2.414 16.634 2.414 17.653 6.194 17.73 6.194 18.613 2.414 19.591 2.414zM20.739 2.414h.94v.787h.074c.254-.58.848-.934 1.478-.882.488-.037.967.15 1.3.509.334.358.486.849.415 1.333v3.206h-.978v-2.96c0-.797-.346-1.192-1.069-1.192-.331-.016-.652.114-.88.355-.227.242-.338.57-.303.9v2.898h-.977V2.414zM26.503.481L27.481.481 27.481 7.368 26.503 7.368zM28.84 4.889c-.085-.888.34-1.747 1.098-2.218.758-.47 1.717-.47 2.475 0s1.184 1.33 1.099 2.218c.086.889-.34 1.75-1.098 2.22-.758.472-1.718.472-2.477 0-.758-.47-1.184-1.331-1.097-2.22zm3.666 0c0-1.074-.482-1.702-1.329-1.702-.85 0-1.328.628-1.328 1.702 0 1.082.478 1.705 1.328 1.705.847 0 1.329-.627 1.329-1.705zM34.541 5.967c0-.892.664-1.406 1.842-1.479l1.342-.077v-.428c0-.523-.346-.818-1.014-.818-.546 0-.924.2-1.032.55h-.947c.1-.85.9-1.396 2.024-1.396 1.242 0 1.942.618 1.942 1.664v3.385h-.94V6.67h-.078c-.32.509-.888.806-1.488.778-.42.044-.84-.092-1.154-.375-.315-.282-.495-.684-.497-1.107zm3.184-.423v-.415l-1.21.078c-.682.045-.991.277-.991.714 0 .446.387.705.918.705.315.032.63-.065.871-.27.242-.203.39-.497.412-.812zM39.983 4.889c0-1.565.805-2.557 2.056-2.557.632-.029 1.224.31 1.519.87h.073V.48h.978v6.887h-.937v-.783h-.077c-.318.555-.917.888-1.556.864-1.26 0-2.056-.991-2.056-2.56zm1.01 0c0 1.05.495 1.683 1.323 1.683.824 0 1.333-.642 1.333-1.679 0-1.032-.514-1.683-1.333-1.683-.823 0-1.323.637-1.323 1.679zM48.653 4.889c-.085-.888.34-1.747 1.099-2.218.757-.47 1.716-.47 2.474 0 .758.47 1.184 1.33 1.099 2.218.086.889-.339 1.75-1.097 2.22-.759.472-1.72.472-2.478 0-.758-.47-1.184-1.331-1.097-2.22zm3.666 0c0-1.074-.482-1.702-1.329-1.702-.85 0-1.327.628-1.327 1.702 0 1.082.478 1.705 1.328 1.705.846 0 1.328-.627 1.328-1.705zM54.636 2.414h.941v.787h.073c.254-.58.848-.934 1.479-.882.488-.037.966.15 1.3.509.333.358.486.849.414 1.333v3.206h-.978v-2.96c0-.797-.345-1.192-1.068-1.192-.331-.016-.653.114-.88.355-.228.242-.338.57-.303.9v2.898h-.978V2.414zM64.367 1.181v1.256h1.073v.823h-1.073v2.547c0 .52.213.746.7.746.125 0 .25-.008.373-.022v.814c-.176.031-.354.048-.532.05-1.087 0-1.52-.383-1.52-1.337V3.26h-.786v-.823h.786V1.18h.979zM66.775.48h.969v2.73h.077c.267-.584.87-.939 1.51-.887.486-.026.958.165 1.288.522.33.357.483.843.419 1.325v3.198h-.979V4.41c0-.791-.368-1.192-1.06-1.192-.34-.028-.674.096-.915.338-.24.242-.362.578-.331.918v2.893h-.978V.48zM76.737 6.03c-.274.934-1.178 1.538-2.146 1.433-.66.018-1.295-.256-1.736-.749-.44-.492-.642-1.153-.552-1.808-.088-.656.113-1.318.551-1.815.439-.496 1.07-.778 1.733-.772 1.378 0 2.21.941 2.21 2.497v.34h-3.498v.056c-.031.367.094.73.346 1 .25.271.604.423.973.419.478.057.944-.18 1.178-.6h.941zM73.3 4.434H75.8c.025-.336-.094-.667-.326-.912-.232-.244-.557-.379-.894-.371-.341-.005-.67.13-.911.37-.242.242-.376.571-.371.913z" transform="translate(-152 -3639) translate(0 3285) translate(152 354) translate(38.5 8.8)"/>
                        </g>
                    </g>
                </g>
            </g>
        </g>
    </g>
</svg>
