<svg height="15" viewBox="0 0 17 15" width="17" xmlns="http://www.w3.org/2000/svg"><path d="m693.594838 1.00033441c-.706282-.02151414-.824711 1.00172306-.132203 1.14218278l1.275832.27944396c.674883 3.22848742 1.410543 6.44381924 2.123918 9.66420975.058655.264057.29289.4519251.563365.4519251h10.131169c.780549.0114721.780549-1.1653877 0-1.1539256h-9.668084l-.255393-1.1534705h10.434634c.270482.0000727.504703-.1877908.563365-.45184779l1.277715-5.76849329c.079646-.36005657-.19426-.7013973-.562995-.70161535-4.414069.00010176-8.828109-.00009449-13.242062-.00218049l-.313605-1.48788448c-.046735-.22206081-.219299-.39607822-.440924-.44471035l-1.640518-.35907536c-.037505-.00864926-.075721-.01366438-.114178-.01460926zm6.232312 11.92271479c-.84278 0-1.538363.6956553-1.538363 1.538479 0 .8428383.695583 1.5384718 1.538363 1.5384718s1.538355-.6956335 1.538355-1.5384718c0-.8428237-.695575-1.538479-1.538355-1.538479zm5.384255 0c-.842773 0-1.538355.6956553-1.538355 1.538479 0 .8428383.695582 1.5384718 1.538355 1.5384718.842787 0 1.538363-.6956335 1.538363-1.5384718 0-.8428237-.695576-1.538479-1.538363-1.538479z" fill="#2c3e50" transform="translate(-693 -1)"/></svg>
