<svg xmlns="http://www.w3.org/2000/svg" viewBox="0 0 192.08 185"><defs><style>.cls-1{fill:#2d3f50;}</style></defs><g id="Layer_2" data-name="Layer 2"><g id="Layer_1-2" data-name="Layer 1"><path class="cls-1" d="M188.86,73.23l-.26-.69L162.45,4.32a6.79,6.79,0,0,0-2.68-3.24A6.89,6.89,0,0,0,155.67,0a7,7,0,0,0-4,1.5A6.91,6.91,0,0,0,149.4,5l-17.65,54H60.33L42.67,5a6.91,6.91,0,0,0-2.31-3.52,7,7,0,0,0-8-.43,6.75,6.75,0,0,0-2.69,3.24L3.48,72.54l-.27.69a48.56,48.56,0,0,0,16.11,56.1l.09.07.23.17,39.83,29.81,19.7,14.92,12,9.06a8.09,8.09,0,0,0,9.77,0l12-9.06,19.69-14.92,40.06-30,.11-.09a48.52,48.52,0,0,0,16.09-56.08"/></g></g></svg>
