<?xml version="1.0" encoding="UTF-8" standalone="no" ?>
<!DOCTYPE svg PUBLIC "-//W3C//DTD SVG 1.1//EN" "http://www.w3.org/Graphics/SVG/1.1/DTD/svg11.dtd">
<svg xmlns="http://www.w3.org/2000/svg" xmlns:xlink="http://www.w3.org/1999/xlink" version="1.1" width="300" height="300" viewBox="0 0 300 300" xml:space="preserve">
<desc>Created with Fabric.js 5.3.0</desc>
<defs>
</defs>
<g transform="matrix(5.5014440468 0 0 5.5014440468 294.0265433886 -167.8782896377)" id="Q5ybTm8JDhgJE2usrwq5s"  >
<g style="" vector-effect="non-scaling-stroke"   >
		<g transform="matrix(1 0 0 1 -30.595 -58.345)" id="-t_QTnvH54tIbXaX-7DOx"  >
<path style="stroke: rgb(35,31,32); stroke-width: 3; stroke-dasharray: none; stroke-linecap: butt; stroke-dashoffset: 0; stroke-linejoin: miter; stroke-miterlimit: 4; fill: none; fill-rule: nonzero; opacity: 1;" vector-effect="non-scaling-stroke"  transform=" translate(-24.38, -24.38)" d="M 0 24.38 C 0 10.915299999999998 10.9153 0 24.38 0 C 37.8447 0 48.76 10.9153 48.76 24.38 C 48.76 37.8447 37.844699999999996 48.76 24.38 48.76 C 10.915299999999998 48.76 0 37.844699999999996 0 24.38 z" stroke-linecap="round" />
</g>
		<g transform="matrix(1 0 0 1 -30.595 -58.34)" id="Cvnf3v0N9rVekYcfA5gBw"  >
<line style="stroke: rgb(35,31,32); stroke-width: 3; stroke-dasharray: none; stroke-linecap: butt; stroke-dashoffset: 0; stroke-linejoin: miter; stroke-miterlimit: 10; fill: none; fill-rule: nonzero; opacity: 1;" vector-effect="non-scaling-stroke"  x1="0" y1="24.374999999999996" x2="0" y2="-24.374999999999996" />
</g>
		<g transform="matrix(1 0 0 1 -30.59 -58.345)" id="rtwWrdO9tFD--bj56DA3J"  >
<line style="stroke: rgb(35,31,32); stroke-width: 3; stroke-dasharray: none; stroke-linecap: butt; stroke-dashoffset: 0; stroke-linejoin: miter; stroke-miterlimit: 10; fill: none; fill-rule: nonzero; opacity: 1;" vector-effect="non-scaling-stroke"  x1="24.375000000000004" y1="0" x2="-24.375000000000004" y2="0" />
</g>
		<g transform="matrix(1 0 0 1 -30.09 -71.015)" id="qrZfpZt2WoKVcQ--DHHDV"  >
<line style="stroke: rgb(35,31,32); stroke-width: 3; stroke-dasharray: none; stroke-linecap: butt; stroke-dashoffset: 0; stroke-linejoin: miter; stroke-miterlimit: 10; fill: none; fill-rule: nonzero; opacity: 1;" vector-effect="non-scaling-stroke"  x1="20.875000000000004" y1="0" x2="-20.875000000000004" y2="0" />
</g>
		<g transform="matrix(1 0 0 1 -30.59 -45.955)" id="VH_tnZHH99G9r9d7BFDWX"  >
<line style="stroke: rgb(35,31,32); stroke-width: 3; stroke-dasharray: none; stroke-linecap: butt; stroke-dashoffset: 0; stroke-linejoin: miter; stroke-miterlimit: 10; fill: none; fill-rule: nonzero; opacity: 1;" vector-effect="non-scaling-stroke"  x1="20.375" y1="0" x2="-20.375" y2="0" />
</g>
		<g transform="matrix(1 0 0 1 -40.4151081727 -58.28)" id="xmPOHTt6zSsmXm-assJyS"  >
<path style="stroke: rgb(35,31,32); stroke-width: 3; stroke-dasharray: none; stroke-linecap: butt; stroke-dashoffset: 0; stroke-linejoin: miter; stroke-miterlimit: 10; fill: none; fill-rule: nonzero; opacity: 1;" vector-effect="non-scaling-stroke"  transform=" translate(-32.9798918273, 70.025)" d="M 37.05 -46 L 34.239999999999995 -50.69 C 27.179999999999996 -62.489999999999995 27.129999999999995 -77.21 34.10999999999999 -89.06 L 37.04999999999999 -94.05" stroke-linecap="round" />
</g>
		<g transform="matrix(1 0 0 1 -20.2748918273 -58.28)" id="toAHSzJjOMoARdzUSWeaU"  >
<path style="stroke: rgb(35,31,32); stroke-width: 3; stroke-dasharray: none; stroke-linecap: butt; stroke-dashoffset: 0; stroke-linejoin: miter; stroke-miterlimit: 10; fill: none; fill-rule: nonzero; opacity: 1;" vector-effect="non-scaling-stroke"  transform=" translate(-53.1201081727, 70.025)" d="M 49.05 -46 L 51.86 -50.69 C 58.92 -62.489999999999995 58.97 -77.21 51.99 -89.06 L 49.050000000000004 -94.05" stroke-linecap="round" />
</g>
		<g transform="matrix(1 0 0 1 -25.945 58.345)" id="3VvMbnV4LacH63K7LWfgs"  >
<path style="stroke: none; stroke-width: 1; stroke-dasharray: none; stroke-linecap: butt; stroke-dashoffset: 0; stroke-linejoin: miter; stroke-miterlimit: 4; fill: rgb(70,76,81); fill-rule: nonzero; opacity: 1;" vector-effect="non-scaling-stroke"  transform=" translate(-47.45, -46.6)" d="M 47.45 20.47 C 33.040000000000006 20.47 21.320000000000004 32.19 21.320000000000004 46.599999999999994 C 21.320000000000004 61.00999999999999 33.040000000000006 72.72999999999999 47.45 72.72999999999999 C 61.86 72.72999999999999 73.58 61 73.58 46.6 C 73.58 32.2 61.86 20.47 47.45 20.47 z M 67.96 37.06 L 61.72999999999999 37.1 C 60.79999999999999 34.14 59.44999999999999 31.42 57.709999999999994 29.080000000000002 C 56.449999999999996 27.380000000000003 55.03999999999999 25.96 53.519999999999996 24.82 C 59.92 26.59 65.19 31.13 67.96 37.06 z M 59.7 46.72 C 59.720000000000006 48.96 59.49 51.15 59.040000000000006 53.239999999999995 L 49.25000000000001 53.239999999999995 L 49.160000000000004 40.67999999999999 L 59.03 40.61999999999999 C 59.45 42.57 59.68 44.62 59.7 46.72 z M 35.38 46.7 C 35.370000000000005 44.660000000000004 35.56 42.67 35.940000000000005 40.760000000000005 L 45.67 40.7 L 45.760000000000005 53.24 L 36.150000000000006 53.24 C 35.65 51.15 35.39 48.95 35.38 46.7 z M 45.56 26.12 L 45.64 37.19 L 36.86 37.239999999999995 C 37.62 34.98 38.65 32.879999999999995 39.97 31.059999999999995 C 41.58 28.83 43.49 27.17 45.56 26.12 z M 45.77 56.73 L 45.84 67.13 C 43.75 66.11 41.830000000000005 64.47999999999999 40.18000000000001 62.24999999999999 C 38.96000000000001 60.60999999999999 37.970000000000006 58.739999999999995 37.20000000000001 56.72999999999999 L 45.77 56.72999999999999 z M 49.34 67.38 L 49.27 56.73 L 58.02 56.73 C 57.28 58.779999999999994 56.31 60.669999999999995 55.1 62.339999999999996 C 53.45 64.65 51.48 66.34 49.34 67.38 z M 49.14 37.17 L 49.06 26.2 C 51.21 27.21 53.2 28.869999999999997 54.89 31.15 C 56.19 32.91 57.230000000000004 34.93 58.02 37.11 L 49.14 37.17 z M 40.97 24.92 C 39.58 26.040000000000003 38.28 27.410000000000004 37.12 29.020000000000003 C 35.379999999999995 31.430000000000003 34.05 34.230000000000004 33.16 37.27 L 26.819999999999997 37.31 C 29.51 31.38 34.66 26.81 40.97 24.92 z M 25.58 40.82 L 32.379999999999995 40.78 C 32.05 42.71 31.859999999999996 44.69 31.879999999999995 46.72 C 31.899999999999995 48.949999999999996 32.13999999999999 51.129999999999995 32.56999999999999 53.23 L 25.819999999999993 53.23 C 25.169999999999995 51.129999999999995 24.829999999999995 48.9 24.829999999999995 46.589999999999996 C 24.82 44.6 25.09 42.66 25.58 40.82 z M 27.23 56.73 L 33.5 56.73 C 34.42 59.529999999999994 35.72 62.11 37.37 64.34 C 38.529999999999994 65.91 39.82 67.24000000000001 41.209999999999994 68.34 C 35.09 66.58 30.04 62.32 27.23 56.73 z M 54.62 68.05 C 55.82 67.00999999999999 56.93 65.78999999999999 57.94 64.39 C 59.559999999999995 62.14 60.82 59.54 61.71 56.730000000000004 L 67.67 56.730000000000004 C 65 62.03 60.31 66.14 54.62 68.05 z M 69.08 53.23 L 62.589999999999996 53.23 C 62.989999999999995 51.12 63.209999999999994 48.93 63.199999999999996 46.69 C 63.19 44.599999999999994 62.959999999999994 42.559999999999995 62.58 40.58 L 69.24 40.54 C 69.78 42.47 70.07 44.5 70.07 46.589999999999996 C 70.08 48.91 69.73 51.13 69.08 53.23 z" stroke-linecap="round" />
</g>
		<g transform="matrix(1 0 0 1 30.595 -59.095)" id="uijaObz4sOFPeyJJAvxCA"  >
<path style="stroke: rgb(35,31,32); stroke-width: 3; stroke-dasharray: none; stroke-linecap: butt; stroke-dashoffset: 0; stroke-linejoin: miter; stroke-miterlimit: 4; fill: none; fill-rule: nonzero; opacity: 1;" vector-effect="non-scaling-stroke"  transform=" translate(-24.38, -24.38)" d="M 0 24.38 C 0 10.915299999999998 10.9153 0 24.38 0 C 37.8447 0 48.76 10.9153 48.76 24.38 C 48.76 37.8447 37.844699999999996 48.76 24.38 48.76 C 10.915299999999998 48.76 0 37.844699999999996 0 24.38 z" stroke-linecap="round" />
</g>
		<g transform="matrix(1 0 0 1 30.6 -59.09)" id="Ve8W2j8Cq8ZdIDxyNCLHF"  >
<line style="stroke: rgb(35,31,32); stroke-width: 3; stroke-dasharray: none; stroke-linecap: butt; stroke-dashoffset: 0; stroke-linejoin: miter; stroke-miterlimit: 10; fill: none; fill-rule: nonzero; opacity: 1;" vector-effect="non-scaling-stroke"  x1="0.16499999999999915" y1="24.374999999999996" x2="-0.16499999999999915" y2="-24.374999999999996" />
</g>
		<g transform="matrix(1 0 0 1 30.51 -67.765)" id="9zXwyknwW5QkPRV3MQPGe"  >
<line style="stroke: rgb(35,31,32); stroke-width: 3; stroke-dasharray: none; stroke-linecap: butt; stroke-dashoffset: 0; stroke-linejoin: miter; stroke-miterlimit: 10; fill: none; fill-rule: nonzero; opacity: 1;" vector-effect="non-scaling-stroke"  x1="22.375" y1="-0.14000000000000057" x2="-22.375" y2="0.14000000000000057" />
</g>
		<g transform="matrix(1 0 0 1 30.6 -50.705)" id="iBIfse6l8goD8o8V2wcU1"  >
<line style="stroke: rgb(35,31,32); stroke-width: 3; stroke-dasharray: none; stroke-linecap: butt; stroke-dashoffset: 0; stroke-linejoin: miter; stroke-miterlimit: 10; fill: none; fill-rule: nonzero; opacity: 1;" vector-effect="non-scaling-stroke"  x1="22.375" y1="0" x2="-22.375" y2="0" />
</g>
		<g transform="matrix(1 0 0 1 25.4496054496 -59.0998717021)" id="AsydLzNC8k0tRtVcDWE0j"  >
<path style="stroke: rgb(35,31,32); stroke-width: 2.7133; stroke-dasharray: none; stroke-linecap: butt; stroke-dashoffset: 0; stroke-linejoin: miter; stroke-miterlimit: 10; fill: none; fill-rule: nonzero; opacity: 1;" vector-effect="non-scaling-stroke"  transform=" translate(-98.8446054496, 70.8448717021)" d="M 107.52 -47.33 C 98.03 -47.269999999999996 90.25999999999999 -57.739999999999995 90.16999999999999 -70.72999999999999 C 90.08 -83.72 97.7 -94.3 107.2 -94.36" stroke-linecap="round" />
</g>
		<g transform="matrix(1 0 0 1 35.9203940408 -58.8701282979)" id="CnnaXRgsj85O0po8P6CSh"  >
<path style="stroke: rgb(35,31,32); stroke-width: 2.7133; stroke-dasharray: none; stroke-linecap: butt; stroke-dashoffset: 0; stroke-linejoin: miter; stroke-miterlimit: 10; fill: none; fill-rule: nonzero; opacity: 1;" vector-effect="non-scaling-stroke"  transform=" translate(-109.3153940408, 70.6151282979)" d="M 100.96 -47.1 C 110.44999999999999 -47.160000000000004 118.08 -57.74 117.99 -70.73 C 117.89999999999999 -83.72 110.13 -94.19 100.63999999999999 -94.13" stroke-linecap="round" />
</g>
</g>
</g>
</svg>