<?xml version="1.0" encoding="utf-8"?>
<!-- Generator: Adobe Illustrator 16.0.0, SVG Export Plug-In . SVG Version: 6.00 Build 0)  -->
<!DOCTYPE svg PUBLIC "-//W3C//DTD SVG 1.1//EN" "http://www.w3.org/Graphics/SVG/1.1/DTD/svg11.dtd">
<svg version="1.1" id="Layer_1" xmlns="http://www.w3.org/2000/svg" xmlns:xlink="http://www.w3.org/1999/xlink" x="0px" y="0px"
	 width="20px" height="20px" viewBox="0 0 20 20" enable-background="new 0 0 20 20" xml:space="preserve">
<g>
	<path fill="#6A6D71" d="M10,0.023C4.49,0.023,0.023,4.49,0.023,10S4.49,19.977,10,19.977S19.977,15.51,19.977,10
		S15.51,0.023,10,0.023z M10,17.977c-4.398,0-7.977-3.578-7.977-7.977S5.602,2.023,10,2.023S17.977,5.602,17.977,10
		S14.398,17.977,10,17.977z"/>
	<path fill="#6A6D71" d="M13.958,9.057h-3.013V6.043c0-0.553-0.448-1-1-1s-1,0.447-1,1v3.016v1.984v0.01c0,0,0.001,0,0.002,0.001
		c0,0.001,0,0.002,0,0.003h0.011h1.983h3.016c0.553,0,1-0.449,1-1C14.958,9.504,14.511,9.057,13.958,9.057z"/>
</g>
</svg>
