<svg xmlns="http://www.w3.org/2000/svg" width="18" height="18" viewBox="0 0 18 18">
    <g fill="none" fill-rule="evenodd">
        <g fill="#2C3E50">
            <path d="M495 1071c4.97 0 9 4.03 9 9s-4.03 9-9 9-9-4.03-9-9 4.03-9 9-9zm-.051 12.497c-.34 0-.63.118-.872.355s-.363.52-.363.849c0 .164.034.318.1.462.067.144.157.268.27.37.114.104.245.186.394.248.15.061.306.092.47.092.34 0 .63-.118.872-.355.242-.236.363-.52.363-.848 0-.33-.124-.607-.37-.833-.247-.227-.535-.34-.864-.34zm.925-8.64h-1.851v7.498h1.851v-7.498z" transform="translate(-486 -1071)"/>
        </g>
    </g>
</svg>
