<svg xmlns="http://www.w3.org/2000/svg" width="19" height="15" viewBox="0 0 19 15">
    <g fill="#2C3E50">
        <path d="M8.906 12.967H1.94V2.033h6.966v2.704h1.84V1.579c0-.77-.632-1.401-1.404-1.401H1.484C.713.178.1.809.1 1.578v11.843c0 .77.633 1.382 1.385 1.382h7.858c.772 0 1.405-.632 1.405-1.382v-3.158h-1.84v2.704z"/>
        <path d="M18.683 7.026L14.25 3.454c-.396-.316-.99-.04-.99.474V5.98H5.938c-.278 0-.515.237-.515.513v2.033c0 .277.237.513.514.513h7.323v2.053c0 .513.594.79.99.474l4.433-3.592c.297-.237.297-.71 0-.948z"/>
    </g>
</svg>
