<svg xmlns="http://www.w3.org/2000/svg" width="19" height="15" viewBox="0 0 19 15">
    <g fill="#1b80c9">
        <path d="M8.882 12.967H1.934V2.033h6.948v2.704h1.835V1.579c0-.77-.631-1.401-1.401-1.401H1.48C.71.178.1.809.1 1.578v11.843c0 .77.631 1.382 1.381 1.382h7.836c.77 0 1.401-.632 1.401-1.382v-3.158H8.882v2.704z"/>
        <path d="M18.632 7.026L14.21 3.454c-.395-.316-.987-.04-.987.474V5.98H5.92c-.276 0-.513.237-.513.513v2.033c0 .277.237.513.513.513h7.303v2.053c0 .513.592.79.987.474l4.42-3.592c.297-.237.297-.71 0-.948z"/>
    </g>
</svg>
