<svg xmlns="http://www.w3.org/2000/svg" width="20" height="18" viewBox="0 0 20 18">
    <path fill="#1b80c9" d="M8 14c1.096 0 2 .904 2 2s-.904 2-2 2-2-.904-2-2 .904-2 2-2zm6 0c1.096 0 2 .904 2 2s-.904 2-2 2-2-.904-2-2 .904-2 2-2zM.703 0c.045.001.09.008.135.018l1.939.436c.262.059.466.27.52.54l.371 1.805c5.217.002 10.434.002 15.65.002.436 0 .76.415.666.852l-1.51 6.999c-.07.32-.347.548-.666.548H5.476l.302 1.4h11.426c.922-.014.922 1.414 0 1.4H5.23c-.32 0-.596-.228-.665-.548-.843-3.908-1.713-7.81-2.51-11.727L.547 1.386C-.272 1.216-.132-.026.703 0zm12.076 5.493l-1.985 2.535-.501-.322c-.292-.188-.677-.13-.901.133-.216.254-.185.634.069.85l.002.001.739.624c.422.356 1.053.302 1.41-.12l.038-.05 2.147-2.896c.206-.277.148-.67-.13-.875-.28-.208-.673-.154-.888.12z"/>
</svg>
