<?xml version="1.0" encoding="UTF-8"?>
<svg width="30px" height="30px" viewBox="0 0 30 30" version="1.1" xmlns="http://www.w3.org/2000/svg" xmlns:xlink="http://www.w3.org/1999/xlink">
    <!-- Generator: Sketch 64 (93537) - https://sketch.com -->
    <title>Payment_Method_selected</title>
    <desc>Created with Sketch.</desc>
    <g id="Icon-Development" stroke="none" stroke-width="1" fill="none" fill-rule="evenodd">
        <path d="M0,14.9871608 C0,23.2607729 6.73914908,29.9871219 14.9999609,29.9871219 C23.273651,29.9871219 30,23.2607729 30,14.9871608 C30,6.72634896 23.273651,0 14.9999609,0 C6.73914908,0 0,6.72634896 0,14.9871608 Z M16.2808395,6.92927895 L16.2808395,7.94330461 L19.7724844,7.94330461 C20.4786808,7.94330461 21.0512555,8.51525497 21.0512555,9.22207579 C21.0512555,9.92889661 20.4786808,10.500847 19.7724844,10.500847 L13.115756,10.500847 C12.2303569,10.500847 11.5104237,11.2214046 11.5104237,12.1068038 C11.5104237,12.992203 12.2303569,13.7115118 13.115756,13.7115118 L16.8877564,13.7115118 C19.1836752,13.7115118 21.0512555,15.5797165 21.0512555,17.8750109 C21.0512555,20.1703053 19.1836752,22.0385101 16.8877564,22.0385101 L16.2808395,22.0385101 L16.2808395,23.0525358 C16.2808395,23.7593566 15.7082647,24.331307 15.0020683,24.331307 C14.2958719,24.331307 13.7232972,23.7593566 13.7232972,23.0525358 L13.7232972,22.0385101 L10.2316523,22.0385101 C9.52545594,22.0385101 8.95288116,21.4665598 8.95288116,20.7597389 C8.95288116,20.0529181 9.52545594,19.4809677 10.2316523,19.4809677 L16.8877562,19.4809677 C17.7731554,19.4809677 18.493713,18.7604101 18.493713,17.8750109 C18.493713,16.9896118 17.7731554,16.2690541 16.8877562,16.2690541 L13.1157559,16.2690541 C10.8204615,16.2690541 8.95288116,14.4020982 8.95288116,12.1068038 C8.95288116,9.81150938 10.8204615,7.94330461 13.1157559,7.94330461 L13.7232972,7.94330461 L13.7232972,6.92927895 C13.7232972,6.22245813 14.2958719,5.65050777 15.0020683,5.65050777 C15.7082647,5.65050777 16.2808395,6.22245813 16.2808395,6.92927895 Z" id="Payment_Method_selected" fill="#1B80C9" fill-rule="nonzero"></path>
    </g>
</svg>