<?xml version="1.0" encoding="UTF-8"?>
<svg width="28px" height="28px" viewBox="0 0 28 28" version="1.1" xmlns="http://www.w3.org/2000/svg" xmlns:xlink="http://www.w3.org/1999/xlink">
    <!-- Generator: Sketch 64 (93537) - https://sketch.com -->
    <title>Pre-order_Icon_Selected</title>
    <desc>Created with Sketch.</desc>
    <g id="Icon-Development" stroke="none" stroke-width="1" fill="none" fill-rule="evenodd">
        <path d="M20.751952,14.8828829 C24.3741438,14.8828829 27.3105105,17.8192496 27.3105105,21.4414414 C27.3105105,25.0636333 24.3741438,28 20.751952,28 C17.1297601,28 14.1933934,25.0636333 14.1933934,21.4414414 C14.1933934,17.8192496 17.1297601,14.8828829 20.751952,14.8828829 Z M20.8987814,16.8168168 L20.3066127,16.8168168 L20.3066127,17.5515446 C19.9995623,17.5807875 19.7034779,17.6538948 19.4183597,17.7708664 C19.1332414,17.887838 18.8810214,18.0431909 18.6616997,18.2369251 C18.4423779,18.4306593 18.2669205,18.6591194 18.1353275,18.9223055 C18.0037345,19.1854916 17.9379379,19.4815759 17.9379379,19.8105585 C17.9379379,20.1760948 18.0000791,20.4813175 18.1243614,20.7262268 C18.2486437,20.9711361 18.4186181,21.1794917 18.6342845,21.3512938 C18.8499508,21.5230958 19.0966878,21.6619996 19.3744953,21.7680051 C19.6523029,21.8740106 19.9447318,21.9708777 20.2517823,22.0586064 L20.3066127,22.0695724 L20.3066127,24.3834168 C19.9995623,24.3541739 19.7071333,24.2737559 19.4293258,24.1421629 C19.3628399,24.1106696 19.2910153,24.0659864 19.213852,24.0081134 C18.919704,23.7875149 18.5076175,23.8190517 18.2504714,24.0818494 C18.0072193,24.3304478 18.0115532,24.7291714 18.2601516,24.9724235 C18.2879223,24.999597 18.3181481,25.0241422 18.350448,25.0457368 C18.5683814,25.1915212 18.7580329,25.2924198 18.9194027,25.3484324 C19.3617016,25.5019577 19.8241049,25.5750649 20.3066127,25.5677542 L20.3066127,26.3463463 L20.8987814,26.3463463 L20.8987814,25.5567881 C21.2496962,25.5202345 21.5768511,25.4434719 21.8802462,25.3265003 C22.1836413,25.2095287 22.448655,25.0505204 22.6752875,24.8494755 C22.9019199,24.6484306 23.0810327,24.4071766 23.2126257,24.1257137 C23.3442188,23.8442508 23.4100153,23.5207513 23.4100153,23.1552151 C23.4100153,22.7823681 23.3387357,22.4716623 23.1961766,22.2230977 C23.0536175,21.974533 22.867194,21.7680051 22.6369062,21.6035138 C22.4066184,21.4390225 22.1434323,21.3056017 21.8473479,21.2032516 C21.5512636,21.1009014 21.2496962,21.0095174 20.9426458,20.9290994 L20.8987814,20.9181333 L20.8987814,18.7249159 C21.1546568,18.7249159 21.399566,18.7779187 21.6335092,18.8839242 C21.6718054,18.9012771 21.7128197,18.9230747 21.7565523,18.9493169 C22.0619847,19.1325841 22.4545611,19.0729125 22.6917366,18.8071616 C22.9059486,18.567141 22.8850265,18.1989127 22.6450059,17.9847007 C22.6113491,17.9546629 22.5743169,17.9286366 22.5346513,17.9071497 C22.3896924,17.8286027 22.259286,17.7703812 22.1434323,17.7324851 C21.7523085,17.6045474 21.3703231,17.5405786 20.9974762,17.5405786 L20.8987814,17.5405786 L20.8987814,16.8168168 Z M20.8987814,22.2450298 C21.0303744,22.2888942 21.1619675,22.3364139 21.2935605,22.387589 C21.4251536,22.438764 21.5457805,22.5009052 21.6554414,22.5740124 C21.7651023,22.6471197 21.8546586,22.7385038 21.9241105,22.8481646 C21.9935624,22.9578255 22.0282884,23.0930739 22.0282884,23.2539098 C22.0282884,23.4147458 21.9972178,23.5591326 21.9350766,23.6870703 C21.8729355,23.815008 21.7906898,23.9246688 21.6883397,24.0160529 C21.5859895,24.1074369 21.4671902,24.1841995 21.3319418,24.2463407 C21.1966934,24.3084819 21.0523066,24.3541739 20.8987814,24.3834168 L20.8987814,22.2450298 Z M11.917523,-6.57252031e-14 C18.4928874,-6.57252031e-14 23.835046,5.34776967 23.835046,11.917523 C23.835046,12.7246973 23.7565593,13.520718 23.5940091,14.2999053 C22.7195359,13.9523605 21.7665762,13.7617891 20.7687619,13.7617891 C16.5253486,13.7617891 13.0722764,17.2091818 13.0722764,21.4526636 C13.0722764,22.2486158 13.1956175,23.0166495 13.4198212,23.7397261 C12.920914,23.8013795 12.4220411,23.835046 11.917523,23.835046 C5.34776961,23.835046 1.47437618e-13,18.4928874 1.47437618e-13,11.917523 C1.47437618e-13,5.34776967 5.34776961,-6.57252031e-14 11.917523,-6.57252031e-14 Z M20.3066127,18.7468481 L20.3066127,20.753642 C20.1750197,20.6951562 20.0489097,20.6421535 19.9282827,20.5946338 C19.8076558,20.547114 19.7034779,20.4868006 19.6157492,20.4136933 C19.5280205,20.3405861 19.456741,20.2528574 19.4019105,20.1505072 C19.3470801,20.0481571 19.3196649,19.9129087 19.3196649,19.744762 C19.3196649,19.4669545 19.4201874,19.2421497 19.6212323,19.0703477 C19.7820682,18.9329061 19.9604499,18.8364045 20.1563773,18.780843 L20.3066127,18.7468481 Z M12.2202202,5.04504505 C11.6596597,5.04504505 11.3569624,5.47668766 11.3569624,5.78502333 L11.3569624,5.78502333 L11.3569624,11.687674 L7.15275819,15.8918782 C6.93413139,16.110505 6.72672673,16.8168168 7.28728729,17.0970971 C7.66099433,17.4708041 7.93567493,17.5754531 8.11132908,17.4110439 C8.93537087,17.4447103 8.39722046,17.3549331 8.50372831,17.2428483 L8.50372831,17.2428483 L12.8760938,12.3154991 C12.9826017,12.2090254 13.0386441,12.0688853 13.0386441,11.917523 L13.0386441,11.917523 L13.0386441,5.78502333 C13.0386441,5.47668766 12.7807808,5.04504505 12.2202202,5.04504505 Z" id="Pre-order_Icon_Selected" fill="#1B80C9" fill-rule="nonzero"></path>
    </g>
</svg>