<svg xmlns="http://www.w3.org/2000/svg" width="18" height="18" viewBox="0 0 18 18">
    <g fill="none" fill-rule="evenodd">
        <g fill="#2C3E50" fill-rule="nonzero">
            <g>
                <path d="M31.791 33.108c-.135.428-.518.766-.969.833v.225c0 .451-.383.834-.833.834-.45 0-.834-.383-.834-.834v-.225c-.45-.09-.81-.405-.969-.833zm.09-1.24v.834H28.12v-.833h3.762zm-1.87-10.633c2.675 0 4.844 2.169 4.844 4.844 0 2.012-1.227 3.737-2.973 4.469v.802h-3.763l-.001-.812c-1.734-.737-2.95-2.456-2.95-4.46 0-2.674 2.168-4.843 4.843-4.843zm-6.488 4.348c.248 0 .428.203.428.428 0 .248-.203.428-.428.428h-2.095c-.248 0-.428-.18-.428-.428s.203-.428.428-.428zm15.049 0c.248 0 .428.18.428.428s-.203.428-.428.428h-2.073c-.247 0-.428-.202-.428-.428 0-.248.203-.428.428-.428zm-14.643-6.06c.112 0 .225.045.293.135l1.486 1.487c.158.158.158.428 0 .586-.157.158-.428.158-.585 0l-1.487-1.487c-.158-.158-.158-.428 0-.586.09-.09.18-.135.293-.135zm12.142 0c.113 0 .203.045.293.135.158.158.158.428 0 .586l-1.487 1.487c-.157.158-.428.158-.585 0-.158-.158-.158-.428 0-.586l1.486-1.487c.09-.09.18-.135.293-.135zM30.011 17c.226 0 .406.18.428.428v2.095c0 .248-.202.428-.428.428-.248 0-.428-.203-.428-.428v-2.095c0-.248.203-.428.428-.428z" transform="translate(-486 -687) translate(465 670)"/>
            </g>
        </g>
    </g>
</svg>
