<?xml version="1.0" encoding="UTF-8"?>
<svg width="20px" height="13px" viewBox="0 0 20 13" version="1.1" xmlns="http://www.w3.org/2000/svg" xmlns:xlink="http://www.w3.org/1999/xlink">
    <!-- Generator: Sketch 64 (93537) - https://sketch.com -->
    <title>Show_Password_Icon</title>
    <desc>Created with Sketch.</desc>
    <g id="Account" stroke="none" stroke-width="1" fill="none" fill-rule="evenodd">
        <g id="24_Wesbite_FieldKit_AccountDetails_Desktop" transform="translate(-1213.000000, -685.000000)" fill="#2C3E50" fill-rule="nonzero">
            <path d="M1232.8064,690.646128 C1231.02732,687.216222 1227.17837,685 1223,685 C1218.82163,685 1214.97268,687.216222 1213.1936,690.646128 L1213,691.019009 L1213.1936,691.391889 C1214.97268,694.821795 1218.82163,697.038017 1223,697.038017 C1227.17837,697.038017 1231.02732,694.821795 1232.8064,691.391889 L1233,691.019009 L1232.8064,690.646128 Z M1223,695.417972 C1219.57603,695.417972 1216.42208,693.704504 1214.83794,691.019009 C1216.42208,688.333513 1219.57603,686.620045 1223,686.620045 C1226.42397,686.620045 1229.57792,688.333513 1231.16206,691.019009 C1229.57792,693.704504 1226.42397,695.417972 1223,695.417972 Z M1223,687.802138 C1221.22632,687.802138 1219.78313,689.245059 1219.78313,691.019009 C1219.78313,692.792958 1221.22632,694.235879 1223,694.235879 C1224.77368,694.235879 1226.21687,692.792688 1226.21687,691.019009 C1226.21687,689.245329 1224.77368,687.802138 1223,687.802138 Z" id="Show_Password_Icon"></path>
        </g>
    </g>
</svg>