<svg aria-hidden="true" style="position: absolute; width: 0; height: 0; overflow: hidden;" version="1.1" xmlns="http://www.w3.org/2000/svg" xmlns:xlink="http://www.w3.org/1999/xlink">
<defs>
<symbol id="icon-addresses" viewBox="0 0 32 32">
<path d="M31.924 15.266c-0.17 0.44-0.592 0.73-1.064 0.732h-3.428v12.574c0 1.892-1.536 3.428-3.43 3.428h-4.572c-0.632 0-1.144-0.512-1.144-1.142v-6.86h-4.572v6.86c0 0.63-0.512 1.142-1.144 1.142h-4.57c-1.894 0-3.43-1.536-3.43-3.428v-12.574h-3.43c-0.47 0-0.89-0.288-1.060-0.724-0.172-0.436-0.060-0.934 0.282-1.254l14.86-13.716c0.44-0.406 1.116-0.406 1.556 0l14.86 13.716c0.34 0.32 0.454 0.812 0.286 1.246z"></path>
</symbol>
<symbol id="icon-dashboard" viewBox="0 0 32 32">
<path d="M11.428 14.857v16c0 0.631-0.512 1.143-1.143 1.143h-6.857c-1.892 0-3.428-1.536-3.428-3.428v-13.715c0-0.631 0.512-1.141 1.143-1.141h9.139c0.631 0 1.143 0.512 1.143 1.141zM28.572 0h-25.143c-1.892 0-3.428 1.536-3.428 3.428v6.857c0 0.631 0.512 1.143 1.143 1.143h29.713c0.631 0 1.143-0.512 1.143-1.143v-6.857c0-1.892-1.536-3.428-3.428-3.428zM30.857 13.715h-16c-0.631 0-1.141 0.512-1.141 1.141v16c0 0.631 0.512 1.143 1.141 1.143h13.715c1.892 0 3.428-1.536 3.428-3.428v-13.715c0-0.631-0.512-1.141-1.143-1.141z"></path>
</symbol>
<symbol id="icon-downloads" viewBox="0 0 34 32">
<path d="M18.942 13.751h3.716c0.589 0 1.067 0.478 1.067 1.067 0 0.282-0.111 0.55-0.307 0.751l-6.852 6.935c-0.414 0.42-1.088 0.422-1.508 0.009l-0.011-0.009-6.852-6.935c-0.414-0.42-0.41-1.094 0.009-1.508 0.201-0.198 0.469-0.309 0.751-0.309h3.716v-12.685c0-0.589 0.478-1.067 1.067-1.067h4.139c0.589 0 1.067 0.478 1.067 1.067v12.685z"></path>
<path d="M2.133 25.6h29.090c1.178 0 2.133 0.955 2.133 2.133v0.823c0 1.178-0.955 2.133-2.133 2.133h-29.090c-1.178 0-2.133-0.955-2.133-2.133v-0.823c0-1.178 0.955-2.133 2.133-2.133z"></path>
</symbol>
<symbol id="icon-logout" viewBox="0 0 41 32">
<path d="M18.999 27.663h-14.861v-23.326h14.861v5.769h3.925v-6.737c0-1.643-1.348-2.989-2.995-2.989h-16.764c-1.645 0-2.953 1.346-2.953 2.987v25.265c0 1.643 1.35 2.948 2.955 2.948h16.764c1.647 0 2.997-1.348 2.997-2.948v-6.737h-3.925v5.769z"></path>
<path d="M39.857 14.989l-9.457-7.62c-0.845-0.674-2.112-0.085-2.112 1.011v4.378h-15.62c-0.593 0-1.099 0.506-1.099 1.094v4.337c0 0.591 0.506 1.094 1.097 1.094h15.622v4.38c0 1.094 1.267 1.685 2.112 1.011l9.457-7.663c0.634-0.506 0.634-1.515 0-2.022z"></path>
</symbol>
<symbol id="icon-orders" viewBox="0 0 36 32">
<path d="M14.222 24.889c1.948 0 3.556 1.607 3.556 3.556s-1.607 3.556-3.556 3.556-3.556-1.607-3.556-3.556 1.607-3.556 3.556-3.556zM24.889 24.889c1.948 0 3.556 1.607 3.556 3.556s-1.607 3.556-3.556 3.556-3.556-1.607-3.556-3.556 1.607-3.556 3.556-3.556zM1.25 0c0.080 0.002 0.16 0.014 0.24 0.032l3.447 0.775c0.466 0.105 0.828 0.48 0.924 0.96l0.66 3.209c9.275 0.004 18.549 0.004 27.822 0.004 0.775 0 1.351 0.738 1.184 1.515l-2.684 12.443c-0.124 0.569-0.617 0.974-1.184 0.974h-21.924l0.537 2.489h20.313c1.639-0.025 1.639 2.514 0 2.489h-21.287c-0.569 0-1.060-0.405-1.182-0.974-1.499-6.948-3.045-13.884-4.462-20.848l-2.681-0.603c-1.456-0.302-1.207-2.51 0.277-2.464zM22.718 9.765l-3.529 4.507-0.891-0.572c-0.519-0.334-1.204-0.231-1.602 0.236-0.384 0.452-0.329 1.127 0.123 1.511l0.004 0.002 1.314 1.109c0.75 0.633 1.872 0.537 2.507-0.213l0.068-0.089 3.817-5.148c0.366-0.492 0.263-1.191-0.231-1.556-0.498-0.37-1.196-0.274-1.579 0.213z"></path>
</symbol>
<symbol id="icon-account-details" viewBox="0 0 32 32">
<path d="M23.571 8c0 4.418-3.838 8-8.571 8s-8.571-3.582-8.571-8c0-4.418 3.838-8 8.571-8s8.571 3.582 8.571 8z"></path>
<path d="M15 16c8.284 0 15 6.716 15 15 0 0.337-0.011 0.671-0.033 1.002h-29.934c-0.022-0.331-0.033-0.665-0.033-1.002 0-8.284 6.716-15 15-15z"></path>
</symbol>
<symbol id="icon-search" viewBox="0 0 34 32">
<path stroke-linejoin="miter" stroke-linecap="butt" stroke-miterlimit="4" stroke-width="4" d="M24 13c0 6.075-4.925 11-11 11s-11-4.925-11-11c0-6.075 4.925-11 11-11s11 4.925 11 11z"></path>
<path stroke-linejoin="miter" stroke-linecap="round" stroke-miterlimit="4" stroke-width="4" d="M24 21l8 8"></path>
</symbol>
<symbol id="icon-user" viewBox="0 0 32 32">
<path d="M23.571 8c0 4.418-3.838 8-8.571 8s-8.571-3.582-8.571-8c0-4.418 3.838-8 8.571-8s8.571 3.582 8.571 8z"></path>
<path d="M15 16c8.284 0 15 6.716 15 15 0 0.337-0.011 0.671-0.033 1.002h-29.934c-0.022-0.331-0.033-0.665-0.033-1.002 0-8.284 6.716-15 15-15z"></path>
</symbol>
</defs>
</svg>
