<svg xmlns="http://www.w3.org/2000/svg" width="15" height="16" viewBox="0 0 15 16">
    <path fill="#1B80C9" d="M10.678 0c.842 0 1.525.683 1.525 1.525v2.543c0 .28-.227.508-.508.508-2.387 0-4.322 1.935-4.322 4.322s1.935 4.322 4.322 4.322c.28 0 .508.228.508.509 0 .842-.683 1.525-1.525 1.525H1.525C.683 15.254 0 14.571 0 13.73V1.525C0 .683.683 0 1.525 0zM2.542 11.186c-.28 0-.508.228-.508.509 0 .28.228.508.508.508.281 0 .509-.227.509-.508 0-.28-.228-.509-.509-.509zm4.068 0H4.068c-.281 0-.509.228-.509.509 0 .28.228.508.509.508H6.61c.281 0 .509-.227.509-.508 0-.28-.228-.509-.509-.509zm5.085-5.593C13.52 5.593 15 7.073 15 8.898c0 1.826-1.48 3.305-3.305 3.305-1.825 0-3.305-1.48-3.305-3.305 0-1.825 1.48-3.305 3.305-3.305zm0 1.526c-.28 0-.509.227-.509.508v1.271c.001.135.055.264.15.359l.763.762c.198.198.519.198.717 0 .197-.198.197-.518 0-.716l-.613-.616v-1.06c0-.28-.227-.508-.508-.508zM2.542 8.644c-.28 0-.508.228-.508.509 0 .28.228.508.508.508.281 0 .509-.228.509-.508 0-.281-.228-.509-.509-.509zm3.56 0H4.068c-.281 0-.509.228-.509.509 0 .28.228.508.509.508h2.034c.28 0 .508-.228.508-.508 0-.281-.227-.509-.508-.509zm-3.56-2.542c-.28 0-.508.227-.508.508s.228.509.508.509c.281 0 .509-.228.509-.509 0-.28-.228-.508-.509-.508zm4.068 0H4.068c-.281 0-.509.227-.509.508s.228.509.509.509H6.61c.281 0 .509-.228.509-.509 0-.28-.228-.508-.509-.508zM2.542 3.559c-.28 0-.508.228-.508.509 0 .28.228.508.508.508.281 0 .509-.227.509-.508s-.228-.509-.509-.509zm6.356 0h-4.83c-.281 0-.509.228-.509.509 0 .28.228.508.509.508h4.83c.281 0 .509-.227.509-.508s-.228-.509-.509-.509z"/>
</svg>
