<svg xmlns="http://www.w3.org/2000/svg" width="21" height="18" viewBox="0 0 21 18">
    <g fill="none" fill-rule="evenodd">
        <g fill="#2C3E50">
            <g>
                <path d="M31.921 18.136c.15.087.274.212.362.361l8.925 15.341c.278.478.116 1.09-.361 1.367-.153.09-.327.136-.503.136H22.493c-.553 0-1-.448-1-1 0-.177.046-.35.135-.503l8.926-15.34c.278-.478.89-.64 1.367-.362zm-.382 13.382c-.308 0-.572.108-.792.322-.219.215-.329.472-.329.77 0 .15.03.29.091.42.061.131.143.243.245.337.103.093.222.168.358.224.135.056.277.084.427.084.308 0 .571-.108.79-.322.22-.215.33-.472.33-.77 0-.3-.112-.551-.336-.757-.224-.205-.486-.308-.784-.308zm.84-7.841h-1.68v6.805h1.68v-6.805z" transform="translate(-486 -1402) translate(465 1384)"/>
            </g>
        </g>
    </g>
</svg>
