<svg xmlns="http://www.w3.org/2000/svg" width="29" height="20" viewBox="0 0 29 20">
    <g fill="none" fill-rule="evenodd">
        <g fill="#2C3E50">
            <g>
                <g>
                    <path d="M217.54 14.22V5.78l7.42 4.22-7.42 4.22zm16.504-11.097c-.327-1.23-1.289-2.197-2.51-2.526C229.32 0 220.444 0 220.444 0s-8.877 0-11.091.597c-1.221.329-2.183 1.297-2.51 2.526-.593 2.228-.593 6.877-.593 6.877s0 4.649.593 6.877c.327 1.23 1.289 2.197 2.51 2.526 2.214.597 11.09.597 11.09.597s8.877 0 11.091-.597c1.221-.329 2.183-1.297 2.51-2.526.593-2.228.593-6.877.593-6.877s0-4.649-.593-6.877z" transform="translate(-364 -3556) translate(0 3285) translate(158 271)"/>
                </g>
            </g>
        </g>
    </g>
</svg>
